<svg width="30" height="30" viewBox="0 0 30 30" fill="none" xmlns="http://www.w3.org/2000/svg">
<path d="M15 22.5347C15 22.5347 16.0561 23.5482 18.0412 23.1258C20.0264 22.7035 20.2378 21.3521 20.2378 21.3521C20.2378 21.3521 21.9722 21.3943 23.3006 19.208C24.6291 17.0218 23.8706 14.4268 23.8706 14.4268C23.8706 14.4268 24.5677 12.7791 23.3639 10.118C21.7927 6.64458 19.0781 7.07677 19.0781 7.07677C19.0781 7.07677 17.693 4.47661 15 5.17364V22.5347Z" fill="#FDCF00"/>
<path d="M15.0022 22.5122C15.0022 22.5122 13.9461 23.5261 11.9609 23.1037C9.97579 22.6814 9.76438 21.3281 9.76438 21.3281C9.76438 21.3281 8.03235 21.3703 6.70204 19.1845C5.37173 16.9987 6.13157 14.4005 6.13157 14.4005C6.13157 14.4005 5.43454 12.7533 6.63829 10.0917C8.21001 6.61875 10.9241 7.05046 10.9241 7.05046C10.9241 7.05046 12.3092 4.45265 15.0022 5.14968V22.5122Z" fill="#FDCF00"/>
<path d="M18.4931 22.9955V25.0032H11.5068V22.9819" fill="#50606D"/>
<path d="M11.5068 25.0032H18.4931V27.143H11.5068V25.0032Z" fill="#50606D"/>
<path d="M12.5454 27.1406H17.4542V28.1325C17.4542 28.437 17.3332 28.7289 17.1179 28.9442C16.9026 29.1595 16.6107 29.2805 16.3062 29.2805H13.6934C13.3889 29.2805 13.0969 29.1595 12.8816 28.9442C12.6664 28.7289 12.5454 28.437 12.5454 28.1325V27.1406Z" fill="#50606D"/>
<path d="M11.5068 22.9819V22.9847L16.9856 22.9955V25.0032H18.4931V22.9955L11.5068 22.9819Z" fill="#3C4854"/>
<path d="M16.9854 25.0032H18.4929V27.143H16.9854V25.0032Z" fill="#3C4854"/>
<path d="M16.1978 27.1429V28.1348C16.1976 28.4392 16.0767 28.7312 15.8614 28.9464C15.6461 29.1617 15.3542 29.2827 15.0498 29.2828H16.3065C16.6109 29.2827 16.9028 29.1617 17.118 28.9464C17.3331 28.7311 17.454 28.4392 17.454 28.1348V27.1429H16.1978Z" fill="#3C4854"/>
<path d="M17.0972 23.6982C16.2166 23.7286 15.3553 23.4358 14.6756 22.8751C14.6297 22.831 14.5932 22.7781 14.5684 22.7195C14.5436 22.6609 14.5309 22.5979 14.5313 22.5343V5.17319C14.5313 5.06929 14.5658 4.96834 14.6295 4.88621C14.6931 4.80407 14.7822 4.74541 14.8828 4.71944C17.092 4.14569 18.6713 5.56834 19.3359 6.58787C20.1961 6.57194 22.4058 6.85553 23.7928 9.92256C24.8634 12.2893 24.518 13.9346 24.3619 14.4432C24.5095 15.0572 24.9525 17.3963 23.7028 19.4518C22.6069 21.2532 21.2363 21.6858 20.5922 21.7885C20.3784 22.3093 19.7752 23.2369 18.1406 23.5843C17.7978 23.6588 17.448 23.697 17.0972 23.6982ZM15.4688 22.3065C15.8349 22.5321 16.2434 22.6805 16.669 22.7425C17.0946 22.8045 17.5284 22.7788 17.9438 22.6669C19.5605 22.3238 19.7681 21.3155 19.7761 21.2729C19.7916 21.1603 19.8489 21.0577 19.9367 20.9855C20.0244 20.9133 20.1361 20.8769 20.2495 20.8833C20.318 20.8833 21.7458 20.8594 22.8994 18.9647C24.1017 16.9885 23.4267 14.5796 23.4197 14.5552C23.3894 14.4517 23.3957 14.341 23.4375 14.2416C23.4422 14.2299 24.0272 12.7224 22.9355 10.3088C21.5292 7.19584 19.1733 7.53522 19.1503 7.53709C19.054 7.55251 18.9553 7.5375 18.8679 7.49414C18.7805 7.45079 18.7088 7.38125 18.6628 7.29522C18.6159 7.20803 17.527 5.25569 15.4674 5.55615L15.4688 22.3065Z" fill="#1C232D"/>
<path d="M23.8992 14.8809C23.7912 14.8808 23.6866 14.8435 23.603 14.7751C23.5194 14.7068 23.4619 14.6117 23.4403 14.5059C23.4187 14.4159 23.2176 13.6908 21.7926 13.7409C21.7213 13.7454 21.6499 13.7325 21.5846 13.7033C21.5193 13.6742 21.462 13.6297 21.4176 13.5736C21.3721 13.519 21.3395 13.4547 21.3223 13.3857C21.3051 13.3167 21.3037 13.2447 21.3183 13.1751C21.3333 13.1058 21.6619 11.4365 20.4694 10.8783C20.4125 10.8528 20.3613 10.8163 20.3187 10.7709C20.276 10.7254 20.2429 10.672 20.2212 10.6136C20.1995 10.5552 20.1897 10.493 20.1923 10.4308C20.1949 10.3686 20.2099 10.3075 20.2364 10.2511C20.2628 10.1947 20.3003 10.1441 20.3465 10.1024C20.3928 10.0606 20.4469 10.0285 20.5056 10.0079C20.5644 9.98734 20.6267 9.97866 20.6889 9.98242C20.7511 9.98618 20.8119 10.0023 20.8678 10.0298C22.2019 10.6561 22.3387 12.0422 22.3003 12.8189C24.0905 12.9797 24.3497 14.2697 24.3628 14.3292C24.3853 14.4513 24.3584 14.5773 24.2881 14.6795C24.2178 14.7818 24.1098 14.8521 23.9878 14.8748C23.9585 14.8798 23.9289 14.8819 23.8992 14.8809Z" fill="#1C232D"/>
<path d="M18.7361 12.0141C18.4816 12.0269 18.2271 11.9878 17.9881 11.8991C17.7492 11.8104 17.5308 11.6741 17.3462 11.4983C17.1616 11.3226 17.0146 11.1111 16.9143 10.8768C16.814 10.6425 16.7624 10.3902 16.7627 10.1354C16.7881 9.77524 16.9123 9.42909 17.1217 9.13501C17.3311 8.84092 17.6176 8.61029 17.9496 8.46849C18.0638 8.41926 18.1928 8.4174 18.3084 8.46333C18.4239 8.50927 18.5165 8.59922 18.5657 8.71341C18.615 8.8276 18.6168 8.95666 18.5709 9.07222C18.525 9.18777 18.435 9.28035 18.3208 9.32958C18.303 9.33802 17.7002 9.61692 17.7002 10.1354C17.7022 10.2668 17.7312 10.3964 17.7853 10.5162C17.8395 10.636 17.9178 10.7433 18.0152 10.8316C18.1126 10.9198 18.2271 10.9871 18.3516 11.0293C18.4761 11.0714 18.608 11.0875 18.7389 11.0766C18.8633 11.077 18.9823 11.1267 19.07 11.2149C19.1576 11.3031 19.2067 11.4224 19.2063 11.5468C19.2059 11.6711 19.1562 11.7902 19.068 11.8778C18.9798 11.9655 18.8605 12.0145 18.7361 12.0141Z" fill="#1C232D"/>
<path d="M17.4465 17.2823C17.3537 17.282 17.261 17.2757 17.169 17.2635C17.1063 17.2577 17.0455 17.2392 16.9901 17.2093C16.9347 17.1793 16.8859 17.1386 16.8466 17.0893C16.8073 17.0401 16.7783 16.9835 16.7614 16.9229C16.7445 16.8622 16.7399 16.7988 16.7481 16.7363C16.7562 16.6739 16.7768 16.6137 16.8087 16.5594C16.8406 16.5052 16.8831 16.4578 16.9337 16.4203C16.9843 16.3828 17.0419 16.3559 17.1031 16.3411C17.1643 16.3264 17.2279 16.3241 17.29 16.3345C17.7381 16.3907 17.86 16.2281 18.1122 15.9028C18.2643 15.6444 18.485 15.4333 18.7497 15.2926C19.0144 15.152 19.313 15.0874 19.6122 15.1059C20.8576 15.1739 21.3972 16.4151 21.4192 16.4681C21.4637 16.5816 21.4622 16.708 21.4151 16.8205C21.3679 16.9329 21.2788 17.0226 21.1666 17.0704C21.0545 17.1182 20.9281 17.1205 20.8143 17.0766C20.7005 17.0328 20.6082 16.9463 20.5572 16.8356C20.5478 16.815 20.2122 16.0776 19.5611 16.0415C19.2245 16.026 19.1059 16.1526 18.8556 16.4765C18.7081 16.7191 18.5015 16.9203 18.255 17.0612C18.0086 17.2022 17.7304 17.2782 17.4465 17.2823Z" fill="#1C232D"/>
<path d="M20.2676 21.8086C20.2526 21.8086 20.2376 21.8086 20.2208 21.8086C19.7276 21.7382 19.2568 21.5573 18.8435 21.2792C18.4301 21.0012 18.085 20.6333 17.8339 20.2031C17.8026 20.1498 17.7822 20.0908 17.7739 20.0296C17.7655 19.9683 17.7693 19.906 17.7851 19.8463C17.8009 19.7865 17.8284 19.7304 17.8659 19.6813C17.9035 19.6322 17.9504 19.591 18.0039 19.5601C18.0574 19.5292 18.1166 19.5092 18.1779 19.5012C18.2392 19.4933 18.3014 19.4975 18.3611 19.5137C18.4208 19.5299 18.4766 19.5577 18.5255 19.5956C18.5743 19.6335 18.6152 19.6806 18.6458 19.7344C18.8218 20.0366 19.063 20.2958 19.3518 20.493C19.6407 20.6902 19.9699 20.8205 20.3155 20.8744C20.4351 20.8864 20.5456 20.9439 20.624 21.0351C20.7024 21.1263 20.7428 21.2441 20.7368 21.3643C20.7308 21.4844 20.6788 21.5976 20.5917 21.6805C20.5045 21.7633 20.3889 21.8096 20.2686 21.8095L20.2676 21.8086Z" fill="#1C232D"/>
<path d="M12.9049 23.6756C12.5549 23.6746 12.2059 23.6367 11.8638 23.5626C10.2293 23.2144 9.62646 22.2867 9.41271 21.7664C8.76865 21.6633 7.39709 21.2301 6.30162 19.4292C5.05193 17.3766 5.4949 15.0351 5.64256 14.4211C5.48646 13.9125 5.14099 12.2672 6.21162 9.89999C7.59912 6.83296 9.81068 6.55874 10.669 6.5653C11.3313 5.54577 12.9035 4.12405 15.1221 4.69734C15.2226 4.7234 15.3116 4.7821 15.3752 4.86422C15.4387 4.94635 15.4732 5.04725 15.4732 5.15109V22.5122C15.4732 22.5754 15.4604 22.638 15.4356 22.6962C15.4108 22.7543 15.3745 22.8069 15.3288 22.8506C14.6488 23.4126 13.7865 23.7061 12.9049 23.6756ZM9.76006 20.8594C9.87257 20.859 9.98154 20.8987 10.0674 20.9714C10.1533 21.044 10.2105 21.1449 10.2288 21.2559C10.2358 21.2916 10.443 22.2998 12.0597 22.6439C12.4751 22.7556 12.9089 22.7813 13.3345 22.7192C13.7602 22.6571 14.1686 22.5087 14.5347 22.283V5.53405C12.4516 5.23405 11.351 7.25109 11.3393 7.27265C11.2938 7.35916 11.2222 7.42911 11.1347 7.47255C11.0472 7.51598 10.9482 7.53067 10.8518 7.51452C10.758 7.50093 8.46115 7.20468 7.06662 10.2862C5.9749 12.7003 6.5599 14.2083 6.56599 14.2237C6.60591 14.3223 6.61185 14.4313 6.58287 14.5336C6.57584 14.558 5.90084 16.9669 7.10365 18.9426C8.25537 20.8341 9.68177 20.8612 9.75724 20.8612L9.76006 20.8594Z" fill="#1C232D"/>
<path d="M6.13153 14.8651C6.06345 14.8648 5.99626 14.8497 5.9346 14.8209C5.87295 14.792 5.81832 14.7501 5.77451 14.698C5.7307 14.6459 5.69877 14.5848 5.68093 14.5191C5.66309 14.4535 5.65978 14.3847 5.67121 14.3176C5.68199 14.2576 5.94168 12.9676 7.73137 12.8063C7.69293 12.0296 7.82981 10.644 9.16434 10.0177C9.27691 9.96494 9.40584 9.95905 9.52275 10.0013C9.63967 10.0436 9.735 10.1306 9.78778 10.2432C9.84055 10.3558 9.84644 10.4847 9.80416 10.6016C9.76188 10.7185 9.67488 10.8138 9.56231 10.8666C8.36981 11.4258 8.69887 13.0951 8.7134 13.1635C8.7276 13.2329 8.7259 13.3046 8.70842 13.3732C8.69095 13.4418 8.65816 13.5056 8.61251 13.5597C8.56686 13.6138 8.50954 13.6569 8.44485 13.6857C8.38017 13.7145 8.3098 13.7283 8.23903 13.726C6.81684 13.6791 6.61059 14.4094 6.59137 14.4933C6.56782 14.5981 6.50959 14.6917 6.42612 14.7592C6.34266 14.8267 6.23885 14.864 6.13153 14.8651Z" fill="#1C232D"/>
<path d="M11.2969 12.0032C11.1726 12.0032 11.0533 11.9539 10.9654 11.8659C10.8775 11.778 10.8281 11.6588 10.8281 11.5345C10.8281 11.4102 10.8775 11.2909 10.9654 11.203C11.0533 11.1151 11.1726 11.0657 11.2969 11.0657C11.4277 11.0765 11.5592 11.0602 11.6835 11.018C11.8077 10.9758 11.9219 10.9085 12.0191 10.8202C12.1162 10.732 12.1942 10.6248 12.2482 10.5052C12.3021 10.3856 12.3309 10.2562 12.3328 10.125C12.3328 9.60089 11.7178 9.32199 11.7112 9.31918C11.5971 9.26988 11.5071 9.17725 11.4612 9.06165C11.4154 8.94605 11.4173 8.81696 11.4666 8.70277C11.5159 8.58858 11.6085 8.49865 11.7241 8.45276C11.8397 8.40687 11.9688 8.40879 12.083 8.45808C12.4149 8.59987 12.7014 8.8305 12.9107 9.1246C13.12 9.4187 13.2441 9.76485 13.2694 10.125C13.2696 10.3797 13.2179 10.6318 13.1177 10.866C13.0174 11.1002 12.8706 11.3116 12.6861 11.4872C12.5016 11.6629 12.2833 11.7993 12.0445 11.888C11.8057 11.9767 11.5513 12.0159 11.2969 12.0032Z" fill="#1C232D"/>
<path d="M12.5857 17.272C12.3024 17.2674 12.0248 17.1912 11.7789 17.0504C11.533 16.9096 11.3268 16.7087 11.1795 16.4667C10.9287 16.1428 10.8045 16.0181 10.4764 16.0312C9.82012 16.0673 9.48356 16.8182 9.48028 16.8281C9.43142 16.9424 9.33913 17.0327 9.2237 17.0791C9.10828 17.1254 8.97918 17.124 8.86481 17.0751C8.75043 17.0262 8.66015 16.934 8.61382 16.8185C8.5675 16.7031 8.56892 16.574 8.61778 16.4596C8.64028 16.4067 9.18028 15.1659 10.4248 15.0974C10.7243 15.0771 11.0235 15.141 11.2885 15.2818C11.5536 15.4226 11.774 15.6348 11.9248 15.8943C12.1775 16.2201 12.304 16.3809 12.747 16.3256C12.8689 16.3123 12.9912 16.3473 13.0876 16.4232C13.184 16.499 13.2469 16.6097 13.2626 16.7313C13.2784 16.853 13.2458 16.9759 13.172 17.0739C13.0981 17.1718 12.9888 17.2369 12.8675 17.2551C12.774 17.2669 12.6799 17.2725 12.5857 17.272Z" fill="#1C232D"/>
<path d="M9.76422 21.7969C9.64395 21.7969 9.52828 21.7507 9.44113 21.6679C9.35398 21.585 9.30202 21.4718 9.296 21.3516C9.28998 21.2315 9.33036 21.1137 9.40878 21.0225C9.48721 20.9313 9.59768 20.8738 9.71734 20.8618C10.0629 20.8079 10.3921 20.6776 10.6809 20.4803C10.9697 20.283 11.2108 20.0237 11.3866 19.7213C11.4492 19.6145 11.5515 19.5368 11.6711 19.5052C11.7908 19.4736 11.9181 19.4905 12.0253 19.5524C12.1325 19.6143 12.2109 19.7161 12.2433 19.8356C12.2758 19.955 12.2596 20.0825 12.1984 20.1901C11.9475 20.6208 11.6022 20.9892 11.1886 21.2675C10.775 21.5457 10.3037 21.7268 9.81016 21.7969C9.79703 21.7969 9.77922 21.7969 9.76422 21.7969Z" fill="#1C232D"/>
<path d="M18.4932 25.4719H11.5088C11.3845 25.4719 11.2652 25.4225 11.1773 25.3346C11.0894 25.2467 11.04 25.1275 11.04 25.0032V22.9819C11.04 22.8576 11.0894 22.7384 11.1773 22.6505C11.2652 22.5626 11.3845 22.5132 11.5088 22.5132C11.6331 22.5132 11.7523 22.5626 11.8402 22.6505C11.9282 22.7384 11.9775 22.8576 11.9775 22.9819V24.5344H18.0244V22.9955C18.0244 22.8712 18.0738 22.752 18.1617 22.6641C18.2496 22.5762 18.3688 22.5268 18.4932 22.5268C18.6175 22.5268 18.7367 22.5762 18.8246 22.6641C18.9125 22.752 18.9619 22.8712 18.9619 22.9955V25.0032C18.9619 25.1275 18.9125 25.2467 18.8246 25.3346C18.7367 25.4225 18.6175 25.4719 18.4932 25.4719Z" fill="#1C232D"/>
<path d="M18.4932 27.6118H11.5088C11.3845 27.6118 11.2652 27.5624 11.1773 27.4745C11.0894 27.3866 11.04 27.2673 11.04 27.143V25.0032C11.04 24.8789 11.0894 24.7596 11.1773 24.6717C11.2652 24.5838 11.3845 24.5344 11.5088 24.5344H18.4932C18.6175 24.5344 18.7367 24.5838 18.8246 24.6717C18.9125 24.7596 18.9619 24.8789 18.9619 25.0032V27.143C18.9619 27.2673 18.9125 27.3866 18.8246 27.4745C18.7367 27.5624 18.6175 27.6118 18.4932 27.6118ZM11.9775 26.6743H18.0244V25.4719H11.9775V26.6743Z" fill="#1C232D"/>
<path d="M16.3067 29.7515H13.6939C13.2653 29.751 12.8544 29.5805 12.5514 29.2774C12.2484 28.9743 12.078 28.5634 12.0776 28.1348V27.1429C12.0776 27.0186 12.127 26.8994 12.2149 26.8115C12.3028 26.7236 12.4221 26.6742 12.5464 26.6742H17.4547C17.579 26.6742 17.6982 26.7236 17.7861 26.8115C17.874 26.8994 17.9234 27.0186 17.9234 27.1429V28.1348C17.9229 28.5634 17.7524 28.9744 17.4493 29.2775C17.1463 29.5806 16.7353 29.751 16.3067 29.7515ZM13.0151 27.6117V28.1348C13.0153 28.3148 13.0868 28.4875 13.214 28.6148C13.3413 28.7421 13.5139 28.8138 13.6939 28.814H16.3067C16.4868 28.8138 16.6594 28.7422 16.7867 28.6148C16.914 28.4875 16.9857 28.3149 16.9859 28.1348V27.6117H13.0151Z" fill="#1C232D"/>
<path d="M28.3927 14.6105H26.4507C26.3264 14.6105 26.2071 14.5611 26.1192 14.4732C26.0313 14.3853 25.9819 14.266 25.9819 14.1417C25.9819 14.0174 26.0313 13.8982 26.1192 13.8103C26.2071 13.7224 26.3264 13.673 26.4507 13.673H28.3927C28.517 13.673 28.6363 13.7224 28.7242 13.8103C28.8121 13.8982 28.8615 14.0174 28.8615 14.1417C28.8615 14.266 28.8121 14.3853 28.7242 14.4732C28.6363 14.5611 28.517 14.6105 28.3927 14.6105Z" fill="#1C232D"/>
<path d="M23.0966 6.51559C23.0038 6.51567 22.913 6.4882 22.8359 6.43667C22.7587 6.38514 22.6986 6.31186 22.6631 6.22612C22.6276 6.14039 22.6183 6.04605 22.6365 5.95505C22.6547 5.86405 22.6995 5.7805 22.7652 5.71497L24.1405 4.34013C24.1837 4.29535 24.2354 4.25964 24.2926 4.23508C24.3498 4.21051 24.4113 4.19758 24.4736 4.19704C24.5358 4.1965 24.5975 4.20836 24.6551 4.23193C24.7127 4.2555 24.7651 4.2903 24.8091 4.33432C24.8531 4.37833 24.8879 4.43066 24.9115 4.48827C24.935 4.54588 24.9469 4.6076 24.9464 4.66984C24.9458 4.73209 24.9329 4.79359 24.9083 4.85078C24.8838 4.90797 24.8481 4.9597 24.8033 5.00294L23.428 6.37497C23.3847 6.41909 23.3332 6.45423 23.2763 6.47837C23.2194 6.5025 23.1583 6.51515 23.0966 6.51559Z" fill="#1C232D"/>
<path d="M15 3.15984C14.8757 3.15984 14.7565 3.11046 14.6685 3.02255C14.5806 2.93464 14.5312 2.81541 14.5312 2.69109V0.75C14.5312 0.62568 14.5806 0.506451 14.6685 0.418544C14.7565 0.330636 14.8757 0.28125 15 0.28125C15.1243 0.28125 15.2435 0.330636 15.3315 0.418544C15.4194 0.506451 15.4688 0.62568 15.4688 0.75V2.69109C15.4688 2.81541 15.4194 2.93464 15.3315 3.02255C15.2435 3.11046 15.1243 3.15984 15 3.15984Z" fill="#1C232D"/>
<path d="M6.90334 6.51568C6.77903 6.51565 6.65983 6.46625 6.57194 6.37834L5.1985 5.0049C5.11283 4.91674 5.06522 4.79846 5.06593 4.67553C5.06663 4.5526 5.1156 4.43487 5.20228 4.34771C5.28895 4.26054 5.4064 4.2109 5.52932 4.2095C5.65224 4.2081 5.7708 4.25504 5.85944 4.34021L7.23288 5.71318C7.29857 5.77871 7.34334 5.86227 7.36151 5.95326C7.37968 6.04426 7.37044 6.1386 7.33495 6.22434C7.29946 6.31007 7.23932 6.38335 7.16215 6.43488C7.08499 6.48641 6.99426 6.51388 6.90147 6.51381L6.90334 6.51568Z" fill="#1C232D"/>
<path d="M3.54945 14.5251H1.60742C1.4831 14.5251 1.36387 14.4758 1.27597 14.3879C1.18806 14.2999 1.13867 14.1807 1.13867 14.0564C1.13867 13.9321 1.18806 13.8128 1.27597 13.7249C1.36387 13.637 1.4831 13.5876 1.60742 13.5876H3.54945C3.67377 13.5876 3.793 13.637 3.88091 13.7249C3.96882 13.8128 4.0182 13.9321 4.0182 14.0564C4.0182 14.1807 3.96882 14.2999 3.88091 14.3879C3.793 14.4758 3.67377 14.5251 3.54945 14.5251Z" fill="#1C232D"/>
<path d="M5.53115 24.0806C5.43845 24.0806 5.34785 24.0531 5.27078 24.0016C5.19371 23.9501 5.13365 23.8769 5.09818 23.7912C5.06271 23.7056 5.05342 23.6113 5.0715 23.5204C5.08958 23.4295 5.13421 23.346 5.19974 23.2804L6.57318 21.9065C6.61642 21.8618 6.66815 21.8261 6.72534 21.8015C6.78252 21.7769 6.84403 21.764 6.90627 21.7634C6.96851 21.7629 7.03024 21.7748 7.08785 21.7983C7.14545 21.8219 7.19779 21.8567 7.2418 21.9007C7.28582 21.9447 7.32062 21.9971 7.34419 22.0547C7.36776 22.1123 7.37962 22.174 7.37908 22.2363C7.37854 22.2985 7.36561 22.36 7.34104 22.4172C7.31647 22.4744 7.28076 22.5261 7.23599 22.5693L5.85928 23.9433C5.77219 24.0304 5.65432 24.0797 5.53115 24.0806Z" fill="#1C232D"/>
<path d="M24.469 24.0806C24.3447 24.0806 24.2255 24.0312 24.1376 23.9433L22.7642 22.5693C22.7194 22.5261 22.6837 22.4744 22.6592 22.4172C22.6346 22.36 22.6217 22.2985 22.6211 22.2363C22.6206 22.174 22.6324 22.1123 22.656 22.0547C22.6796 21.9971 22.7144 21.9447 22.7584 21.9007C22.8024 21.8567 22.8547 21.8219 22.9123 21.7983C22.97 21.7748 23.0317 21.7629 23.0939 21.7634C23.1562 21.764 23.2177 21.7769 23.2749 21.8015C23.332 21.8261 23.3838 21.8618 23.427 21.9065L24.8004 23.2804C24.866 23.346 24.9106 23.4295 24.9287 23.5204C24.9468 23.6113 24.9375 23.7056 24.902 23.7912C24.8665 23.8769 24.8065 23.9501 24.7294 24.0016C24.6523 24.0531 24.5617 24.0806 24.469 24.0806Z" fill="#1C232D"/>
</svg>
