<svg width="30" height="29" viewBox="0 0 30 29" fill="none" xmlns="http://www.w3.org/2000/svg">
<path fill-rule="evenodd" clip-rule="evenodd" d="M15.708 12.2393H27.4962V27.5143C27.4962 28.0898 26.9919 28.5606 26.3756 28.5606H16.8285C16.2123 28.5606 15.708 28.0898 15.708 27.5143V12.2393Z" fill="#CCCCCC"/>
<path fill-rule="evenodd" clip-rule="evenodd" d="M0.768574 23.9373C0.373366 23.5683 0.373366 22.9644 0.768574 22.5953L8.09812 15.7512L9.53532 17.0932L2.20577 23.9373C1.81049 24.3064 1.16378 24.3064 0.768574 23.9373Z" fill="#60B7FE"/>
<path fill-rule="evenodd" clip-rule="evenodd" d="M17.3853 17.1864C17.7806 17.5555 17.7806 18.1593 17.3853 18.5283L10.0558 25.3724L8.61865 24.0304L15.9482 17.1863C16.3434 16.8173 16.9901 16.8173 17.3853 17.1864Z" fill="#60B7FE"/>
<path fill-rule="evenodd" clip-rule="evenodd" d="M5.13972 17.5532H11.6435V24.3854C11.6435 26.0556 10.1802 27.4219 8.39159 27.4219C6.603 27.4219 5.13965 26.0555 5.13965 24.3854L5.13972 17.5532Z" fill="#FFBF31"/>
<path fill-rule="evenodd" clip-rule="evenodd" d="M8.39059 21.6362C8.89404 21.6362 9.30217 22.0173 9.30217 22.4874C9.30217 22.9575 8.89404 23.3386 8.39059 23.3386C7.88714 23.3386 7.479 22.9575 7.479 22.4874C7.479 22.0173 7.88707 21.6362 8.39059 21.6362Z" fill="#FA6E85"/>
<path fill-rule="evenodd" clip-rule="evenodd" d="M8.39059 8.35132C8.89411 8.35132 9.30225 8.73242 9.30225 9.2026C9.30225 9.6727 8.89411 10.0538 8.39059 10.0538C7.88714 10.0538 7.479 9.6727 7.479 9.2026C7.47893 8.73242 7.88707 8.35132 8.39059 8.35132Z" fill="#FA6E85"/>
<path fill-rule="evenodd" clip-rule="evenodd" d="M4.99328 13.3779H11.7877C12.4903 13.3779 13.0651 13.9147 13.0651 14.5707V17.406C13.0651 17.9391 12.6515 18.3838 12.0863 18.4585C9.58903 18.7885 7.12529 18.7832 4.69368 18.4597C4.12883 18.3846 3.71582 17.9401 3.71582 17.4073V14.5707C3.71582 13.9147 4.29064 13.3779 4.99328 13.3779Z" fill="#60B7FE"/>
<path fill-rule="evenodd" clip-rule="evenodd" d="M20.6963 12.509H22.5075V13.8314C22.5075 14.2964 22.0999 14.677 21.6019 14.677C21.1038 14.677 20.6963 14.2965 20.6963 13.8314V12.509Z" fill="#FA6E85"/>
<path fill-rule="evenodd" clip-rule="evenodd" d="M23.0437 12.555C23.303 9.47645 25.1046 8.70872 25.1046 6.86943C25.1046 5.0627 23.536 3.59802 21.6011 3.59802C19.6662 3.59802 18.0977 5.0627 18.0977 6.86943C18.0977 8.70872 19.8992 9.47645 20.1585 12.555H23.0437Z" fill="#FFBF31"/>
<path fill-rule="evenodd" clip-rule="evenodd" d="M20.0133 11.5774H23.19V12.9447C23.19 13.071 23.0792 13.1745 22.9439 13.1745H20.2593C20.1239 13.1745 20.0132 13.071 20.0132 12.9447V11.5774H20.0133Z" fill="#60B7FE"/>
<path fill-rule="evenodd" clip-rule="evenodd" d="M21.0032 8.37314C21.1979 8.54009 21.4961 8.5245 21.6693 8.3454L23.1325 6.84106C23.3069 6.66147 23.295 6.38344 23.1008 6.22055C22.9104 6.05725 22.613 6.07057 22.4386 6.24981L21.2927 7.42755L20.7574 6.96883C20.567 6.80477 20.2697 6.81594 20.0912 6.99435C19.9168 7.17318 19.9287 7.45087 20.119 7.61562L21.0032 8.37314ZM17.1293 3.3711C17.3131 3.54275 17.6128 3.54226 17.7954 3.3711C17.9778 3.19931 17.9778 2.92086 17.7954 2.74942L17.0222 2.02819C16.8398 1.8564 16.5424 1.8564 16.3561 2.02819C16.1737 2.19963 16.1737 2.47808 16.3561 2.64911L17.1293 3.3711ZM14.655 7.36463H15.7256C15.9873 7.36463 16.1974 7.16801 16.1974 6.9255C16.1974 6.68224 15.9873 6.48603 15.7256 6.48603H14.655C14.3973 6.48603 14.1832 6.68224 14.1832 6.9255C14.1832 7.16801 14.3973 7.36463 14.655 7.36463ZM27.4782 7.36463H28.5488C28.8065 7.36463 29.0166 7.16801 29.0166 6.9255C29.0166 6.68224 28.8065 6.48603 28.5488 6.48603H27.4782C27.2165 6.48603 27.0064 6.68224 27.0064 6.9255C27.0063 7.16801 27.2165 7.36463 27.4782 7.36463ZM25.7415 3.49997C25.8604 3.49997 25.9834 3.4563 26.0745 3.3711L26.8477 2.64945C27.0301 2.47801 27.0301 2.19956 26.8477 2.02819C26.6613 1.8564 26.3639 1.8564 26.1816 2.02819L25.4084 2.74942C25.1154 3.0238 25.3222 3.49997 25.7415 3.49997ZM21.6019 1.90753C21.8596 1.90753 22.0737 1.71056 22.0737 1.46805V0.439471C22.0737 0.19621 21.8596 0 21.6019 0C21.3402 0 21.13 0.19621 21.13 0.439471V1.46799C21.13 1.71056 21.3402 1.90753 21.6019 1.90753ZM10.0158 16.0947C10.2775 16.0947 10.4877 15.898 10.4877 15.6552V15.0505C10.4877 14.808 10.2775 14.6114 10.0158 14.6114C9.75813 14.6114 9.54793 14.808 9.54793 15.0505V15.6552C9.548 15.898 9.75813 16.0947 10.0158 16.0947ZM6.76448 16.0947C7.02618 16.0947 7.23631 15.898 7.23631 15.6552V15.0505C7.23631 14.808 7.02618 14.6114 6.76448 14.6114C6.50278 14.6114 6.29266 14.808 6.29266 15.0505V15.6552C6.29266 15.898 6.50278 16.0947 6.76448 16.0947ZM8.83029 22.4878C8.83029 22.2604 8.63198 22.0757 8.39016 22.0757C8.14826 22.0757 7.95003 22.2604 7.95003 22.4878C7.95003 22.7143 8.14826 22.8995 8.39016 22.8995C8.63206 22.8994 8.83029 22.7143 8.83029 22.4878ZM9.77401 22.4878C9.77401 23.199 9.15154 23.7784 8.39023 23.7784C7.62893 23.7784 7.01037 23.199 7.01037 22.4878C7.01037 21.7758 7.62893 21.1971 8.39023 21.1971C9.15146 21.1971 9.77401 21.7758 9.77401 22.4878ZM27.0262 12.6787H23.6598V12.9453C23.6598 13.3029 23.3584 13.5955 22.9777 13.6125V13.8313C22.9777 14.54 22.3592 15.1164 21.6019 15.1164C20.8406 15.1164 20.226 14.5399 20.226 13.8313V13.6125C19.8453 13.5955 19.544 13.303 19.544 12.9453V12.6787H16.1776V16.5474C16.5543 16.4264 16.9706 16.4486 17.3275 16.6159L18.7748 15.2653C18.9611 15.0935 19.2585 15.0935 19.4409 15.2653C19.6233 15.4368 19.6233 15.7144 19.4409 15.8862L17.9936 17.2373C18.2712 17.7567 18.18 18.4058 17.7161 18.839L16.1776 20.2756V27.5146C16.1776 27.849 16.471 28.1215 16.8279 28.1215H26.3758C26.7327 28.1215 27.0261 27.849 27.0261 27.5146L27.0262 12.6787ZM12.1134 22.8287V21.3873L16.2807 17.4964C16.4908 17.298 16.8398 17.298 17.0499 17.4964C17.2619 17.6951 17.2617 18.0203 17.0499 18.2173L12.1134 22.8287ZM11.1737 24.3853C11.1737 25.817 9.92466 26.9822 8.39016 26.9822C6.85566 26.9822 5.61063 25.817 5.61063 24.3853V19.0074C7.45582 19.1887 9.32347 19.1861 11.1737 19.006V24.3853ZM4.66698 21.0171V19.5761L1.10235 22.9061C0.89038 23.1029 0.890676 23.4304 1.10235 23.6266C1.31647 23.8251 1.66144 23.8251 1.87555 23.6266L4.66698 21.0171ZM4.18717 17.4072V14.5711C4.18717 14.1549 4.54802 13.8172 4.99207 13.8172H11.7882C12.2323 13.8172 12.5931 14.1548 12.5931 14.5711V17.406C12.5931 17.72 12.3552 17.9791 12.0222 18.0232C9.5995 18.3431 7.15703 18.3431 4.76207 18.0243C4.42907 17.9807 4.18717 17.7204 4.18717 17.4072ZM19.31 8.81481C18.8977 8.13063 18.5685 7.58968 18.5685 6.86914C18.5685 5.30781 19.9286 4.03748 21.6019 4.03748C23.2751 4.03748 24.6352 5.30781 24.6352 6.86914C24.6352 8.22984 23.3789 9.09381 22.8152 11.1381H20.3846C20.1149 10.1459 19.6907 9.44242 19.31 8.81481ZM21.1657 13.8313V13.6144H22.0381V13.8313C22.0381 14.0554 21.8398 14.2375 21.6019 14.2375C21.36 14.2375 21.1657 14.0554 21.1657 13.8313ZM22.72 12.0171V12.7354H20.4837V12.0171H22.72ZM7.95003 9.20247C7.95003 9.4298 8.14826 9.61456 8.39016 9.61456C8.63198 9.61456 8.83029 9.4298 8.83029 9.20247C8.83029 8.97515 8.63198 8.79074 8.39016 8.79074C8.14834 8.79081 7.95003 8.97515 7.95003 9.20247ZM30 12.2389C30 12.4817 29.7899 12.6787 29.5282 12.6787H27.966V27.5146C27.966 28.3335 27.2522 29 26.376 29H16.8279C15.9516 29 15.2379 28.3335 15.2379 27.5146V21.1541L12.1134 24.0713V24.3853C12.1134 26.302 10.4441 27.8612 8.39016 27.8612C6.33625 27.8612 4.6669 26.302 4.6669 24.3853V22.2604L2.53763 24.2483C1.60817 25.1167 0 24.5034 0 23.2664C0 22.895 0.15464 22.5463 0.436139 22.2848L4.19109 18.7778C3.6241 18.542 3.24737 18.0169 3.24737 17.4072V14.5711C3.24737 13.6702 4.02847 12.9386 4.992 12.9386H7.91826V10.4157C7.39095 10.2362 7.0103 9.75971 7.0103 9.20247C7.0103 8.49083 7.62885 7.91179 8.39016 7.91179C9.15146 7.91179 9.77394 8.49083 9.77394 9.20247C9.77394 9.75971 9.39329 10.2362 8.86198 10.4157V12.9386H11.7882C12.7518 12.9386 13.5369 13.6702 13.5369 14.5711V17.406C13.5369 18.1769 12.9456 18.7951 12.1134 18.8985V20.144L15.2379 17.2276V12.6786H13.6756C13.4139 12.6786 13.2038 12.4817 13.2038 12.2388C13.2038 11.9963 13.4139 11.7997 13.6756 11.7997H19.544V11.6261C19.31 10.6015 18.8937 9.91253 18.4893 9.24718C18.0491 8.51332 17.6288 7.821 17.6288 6.86907C17.6288 4.82308 19.4091 3.15881 21.6019 3.15881C23.7946 3.15881 25.5749 4.82308 25.5749 6.86907C25.5749 7.82059 25.1546 8.51332 24.7105 9.24718C24.3101 9.91329 23.8938 10.602 23.6598 11.6279V11.7997H29.5282C29.7898 11.7998 30 11.9964 30 12.2389ZM25.5194 25.4849C25.7811 25.4849 25.9913 25.6819 25.9913 25.9244C25.9913 26.1669 25.7811 26.3639 25.5194 26.3639H21.8636C21.6019 26.3639 21.3918 26.1669 21.3918 25.9244C21.3918 25.6819 21.6019 25.4849 21.8636 25.4849H25.5194ZM19.6828 24.8769C19.8572 24.697 20.1546 24.684 20.3449 24.8469C20.5393 25.0102 20.5512 25.2879 20.3766 25.4678L18.9135 26.9725C18.7374 27.1497 18.4376 27.1668 18.2474 26.9999L17.3631 26.2424C17.1728 26.0776 17.1609 25.7999 17.3353 25.6215C17.5138 25.4426 17.8112 25.4312 18.0015 25.5955L18.5328 26.0539L19.6828 24.8769ZM25.5194 22.8139C25.7811 22.8139 25.9913 23.0109 25.9913 23.2534C25.9913 23.4967 25.7811 23.6929 25.5194 23.6929H21.8636C21.6019 23.6929 21.3918 23.4967 21.3918 23.2534C21.3918 23.0109 21.6019 22.8139 21.8636 22.8139H25.5194ZM19.6828 22.2059C19.8572 22.026 20.1546 22.013 20.3449 22.176C20.5393 22.3396 20.5512 22.6173 20.3766 22.7969L18.9135 24.3016C18.7375 24.4787 18.4375 24.4962 18.2474 24.329L17.3631 23.5715C17.1728 23.4067 17.1609 23.129 17.3353 22.9505C17.5138 22.7717 17.8112 22.7602 18.0015 22.9246L18.5328 23.383L19.6828 22.2059ZM21.8636 20.143H25.5194C25.7811 20.143 25.9912 20.3399 25.9912 20.5824C25.9912 20.8257 25.7811 21.0219 25.5194 21.0219H21.8636C21.6019 21.0219 21.3917 20.8257 21.3917 20.5824C21.3917 20.3399 21.6019 20.143 21.8636 20.143ZM20.3449 19.505C20.5393 19.6687 20.5512 19.9463 20.3766 20.1259L18.9135 21.6306C18.7373 21.8083 18.4377 21.8254 18.2474 21.658L17.3631 20.9005C17.1728 20.7357 17.1609 20.458 17.3353 20.2796C17.5138 20.1007 17.8112 20.0889 18.0015 20.2536L18.5328 20.7116L19.6826 19.5349C19.8572 19.3551 20.1546 19.3421 20.3449 19.505Z" fill="#1E2F3F"/>
</svg>
