<svg width="30" height="30" viewBox="0 0 30 30" fill="none" xmlns="http://www.w3.org/2000/svg">
<g clip-path="url(#clip0_9237_19887)">
<path d="M2.34961 6.00484V12.0956C2.34961 13.4074 3.38032 14.4382 4.69222 14.4382H6.09775C6.37888 14.4382 6.56626 14.6256 6.56626 14.9067V17.0619C6.56626 17.4836 7.08164 17.671 7.36271 17.3898L9.61157 15.141C10.0333 14.7193 10.6423 14.4382 11.2514 14.4382H14.9995C16.3113 14.4382 17.3421 13.4075 17.3421 12.0956V6.00484C17.3421 4.693 16.3114 3.66223 14.9995 3.66223H4.69216C3.38032 3.66223 2.34961 4.73982 2.34961 6.00484Z" fill="#FFA000"/>
<path d="M7.03752 17.7577C6.94477 17.7577 6.85108 17.7394 6.76108 17.7024C6.49635 17.5927 6.33194 17.3472 6.33194 17.0619V14.9067C6.33194 14.7558 6.24857 14.6725 6.09769 14.6725H4.6921C3.24719 14.6725 2.11523 13.5405 2.11523 12.0956V6.00484C2.11523 4.58384 3.27104 3.42798 4.6921 3.42798H14.9995C16.4439 3.42798 17.5764 4.55994 17.5764 6.00484V12.0956C17.5764 13.5405 16.4444 14.6725 14.9995 14.6725H11.2514C10.7252 14.6725 10.1742 14.9095 9.77739 15.3068L7.52853 17.5557C7.39593 17.6878 7.21928 17.7577 7.03752 17.7577ZM4.6921 3.89655C3.52973 3.89655 2.58374 4.84247 2.58374 6.0049V12.0957C2.58374 13.2777 3.50998 14.204 4.6921 14.204H6.09763C6.50479 14.204 6.80039 14.4997 6.80039 14.9068V17.0619C6.80039 17.1969 6.89783 17.2521 6.94002 17.2695C7.01168 17.299 7.11762 17.3032 7.19678 17.224L9.44564 14.9751C9.92868 14.4921 10.6033 14.2035 11.2513 14.2035H14.9994C16.1815 14.2035 17.1078 13.2772 17.1078 12.0951V6.00437C17.1078 4.82232 16.1816 3.89602 14.9994 3.89602H4.6921V3.89655Z" fill="#37474F"/>
<path d="M2.34961 4.13076V10.2215C2.34961 11.5333 3.38032 12.5641 4.69222 12.5641H6.09775C6.37888 12.5641 6.56626 12.7515 6.56626 13.0326V15.1878C6.56626 15.6095 7.08164 15.7969 7.36271 15.5157L9.61157 13.2669C10.0333 12.8452 10.6423 12.5641 11.2514 12.5641H14.9995C16.3113 12.5641 17.3421 11.5334 17.3421 10.2215V4.13082C17.3421 2.81898 16.3114 1.78821 14.9995 1.78821H4.69216C3.38032 1.78821 2.34961 2.86579 2.34961 4.13076Z" fill="#FFCA28"/>
<path d="M7.03752 15.8835C6.94477 15.8835 6.85108 15.8652 6.76108 15.8282C6.49635 15.7185 6.33194 15.473 6.33194 15.1877V13.0325C6.33194 12.8816 6.24857 12.7983 6.09769 12.7983H4.6921C3.24719 12.7983 2.11523 11.6663 2.11523 10.2214V4.1307C2.11523 2.7097 3.27104 1.55383 4.6921 1.55383H14.9995C16.4439 1.55383 17.5764 2.68579 17.5764 4.1307V10.2214C17.5764 11.6664 16.4444 12.7983 14.9995 12.7983H11.2514C10.7252 12.7983 10.1742 13.0354 9.77739 13.4327L7.52853 15.6816C7.39593 15.8137 7.21928 15.8835 7.03752 15.8835ZM4.6921 2.0224C3.52973 2.0224 2.58374 2.96833 2.58374 4.13076V10.2215C2.58374 11.4036 3.50998 12.3299 4.6921 12.3299H6.09763C6.50479 12.3299 6.80039 12.6255 6.80039 13.0326V15.1878C6.80039 15.3227 6.89783 15.378 6.94002 15.3953C7.01168 15.4249 7.11762 15.4291 7.19678 15.3499L9.44564 13.101C9.92868 12.618 10.6038 12.3298 11.2513 12.3298H14.9994C16.1815 12.3298 17.1078 11.4036 17.1078 10.2214V4.13076C17.1078 2.9487 16.1816 2.0224 14.9994 2.0224H4.6921Z" fill="#37474F"/>
<path d="M3.2865 6.23911C3.15719 6.23911 3.05225 6.13417 3.05225 6.00485V4.13075C3.05225 3.21154 3.77282 2.49097 4.69203 2.49097H6.56613C6.69545 2.49097 6.80039 2.59591 6.80039 2.72522C6.80039 2.85454 6.69545 2.95948 6.56613 2.95948H4.69203C4.02442 2.95948 3.52076 3.46314 3.52076 4.13075V6.00485C3.52076 6.13417 3.41628 6.23911 3.2865 6.23911Z" fill="#FFE082"/>
<path d="M27.6497 16.7807V22.8715C27.6497 24.1833 26.619 25.2141 25.3071 25.2141H23.9016C23.6205 25.2141 23.4331 25.4015 23.4331 25.6826V27.8378C23.4331 28.2595 22.9177 28.4468 22.6366 28.1657L20.3878 25.9168C19.9661 25.4952 19.357 25.2141 18.748 25.2141H14.9998C13.688 25.2141 12.6572 24.1834 12.6572 22.8715V16.7807C12.6572 15.4689 13.6879 14.4381 14.9998 14.4381H25.3072C26.619 14.4381 27.6497 15.5157 27.6497 16.7807Z" fill="#D32F2F"/>
<path d="M22.9622 28.5335C22.7803 28.5335 22.6033 28.4637 22.4712 28.3311L20.2218 26.0822C19.825 25.6849 19.2745 25.4478 18.7479 25.4478H14.9997C13.5548 25.4478 12.4229 24.3159 12.4229 22.871V16.7802C12.4229 15.3353 13.5548 14.2034 14.9997 14.2034H25.3071C26.7276 14.2034 27.884 15.3592 27.884 16.7802V22.871C27.884 24.3159 26.752 25.4478 25.3071 25.4478H23.9016C23.7507 25.4478 23.6673 25.5312 23.6673 25.6821V27.8373C23.6673 28.1226 23.5029 28.3686 23.2382 28.4778C23.1487 28.5152 23.0545 28.5335 22.9622 28.5335ZM14.9997 14.6723C13.8177 14.6723 12.8914 15.5986 12.8914 16.7807V22.8715C12.8914 24.0535 13.8176 24.9798 14.9997 24.9798H18.7479C19.3958 24.9798 20.0709 25.268 20.5535 25.751L22.8028 27.9999C22.882 28.079 22.9879 28.0748 23.0596 28.0453C23.1013 28.028 23.1992 27.9732 23.1992 27.8378V25.6826C23.1992 25.2689 23.4883 24.9799 23.902 24.9799H25.3075C26.4896 24.9799 27.4159 24.0536 27.4159 22.8715V16.7808C27.4159 15.6184 26.47 14.6724 25.3075 14.6724L14.9997 14.6723Z" fill="#37474F"/>
<path d="M27.6497 14.9067V20.9974C27.6497 22.3093 26.619 23.3401 25.3071 23.3401H23.9016C23.6205 23.3401 23.4331 23.5274 23.4331 23.8086V25.9637C23.4331 26.3854 22.9177 26.5728 22.6366 26.2917L20.3878 24.0428C19.9661 23.6211 19.357 23.3401 18.748 23.3401H14.9998C13.688 23.3401 12.6572 22.3093 12.6572 20.9974V14.9067C12.6572 13.5949 13.6879 12.5641 14.9998 12.5641H25.3072C26.619 12.5641 27.6497 13.6417 27.6497 14.9067Z" fill="#EF5350"/>
<path d="M22.9622 26.6595C22.7803 26.6595 22.6033 26.5897 22.4712 26.4571L20.2218 24.2082C19.825 23.8109 19.2745 23.5738 18.7479 23.5738H14.9997C13.5548 23.5738 12.4229 22.4419 12.4229 20.997V14.9062C12.4229 13.4613 13.5548 12.3293 14.9997 12.3293H25.3071C26.7276 12.3293 27.884 13.4852 27.884 14.9062V20.997C27.884 22.4419 26.752 23.5738 25.3071 23.5738H23.9016C23.7507 23.5738 23.6673 23.6572 23.6673 23.8081V25.9632C23.6673 26.2486 23.5029 26.4946 23.2382 26.6037C23.1487 26.6412 23.0545 26.6595 22.9622 26.6595ZM14.9997 12.7984C13.8177 12.7984 12.8914 13.7246 12.8914 14.9067V20.9975C12.8914 22.1795 13.8176 23.1058 14.9997 23.1058H18.7479C19.3958 23.1058 20.0709 23.394 20.5535 23.877L22.8028 26.1259C22.882 26.2051 22.9879 26.2008 23.0596 26.1714C23.1013 26.154 23.1992 26.0992 23.1992 25.9638V23.8087C23.1992 23.3949 23.4883 23.1059 23.902 23.1059H25.3075C26.4896 23.1059 27.4159 22.1797 27.4159 20.9975V14.9067C27.4159 13.7443 26.47 12.7983 25.3075 12.7983L14.9997 12.7984Z" fill="#37474F"/>
<path d="M13.5941 17.015C13.4648 17.015 13.3599 16.91 13.3599 16.7807V14.9066C13.3599 13.9874 14.0804 13.2668 14.9996 13.2668H16.8737C17.0031 13.2668 17.108 13.3718 17.108 13.5011C17.108 13.6304 17.0031 13.7354 16.8737 13.7354H14.9996C14.332 13.7354 13.8284 14.239 13.8284 14.9066V16.7807C13.8284 16.91 13.7239 17.015 13.5941 17.015Z" fill="#EF9A9A"/>
<path d="M23.5734 20.482L20.7623 14.8598C20.6217 14.6256 20.3875 14.485 20.1532 14.485C19.919 14.485 19.6378 14.6256 19.5442 14.8598L16.733 20.482C16.5457 20.81 16.6862 21.2317 17.061 21.4191C17.3889 21.6064 17.8106 21.4659 17.998 21.0911L18.5134 20.0604H21.8398L22.3552 21.0911C22.4958 21.3254 22.73 21.4659 22.9643 21.4659C23.058 21.4659 23.1985 21.4191 23.2922 21.3722C23.6203 21.2317 23.7609 20.81 23.5734 20.482ZM19.1694 18.6548L20.1533 16.7339L21.1372 18.6548H19.1694Z" fill="#ECEFF1"/>
<path d="M17.3706 21.7357C17.2226 21.7357 17.0764 21.6978 16.9448 21.6219C16.7124 21.5066 16.5292 21.2949 16.4542 21.047C16.3845 20.8156 16.4107 20.5734 16.5292 20.3654L19.3342 14.7548C19.4635 14.4297 19.8458 14.2502 20.1527 14.2502C20.4713 14.2502 20.7819 14.4372 20.9628 14.7384L23.78 20.3709C23.9004 20.586 23.9243 20.8437 23.8451 21.0793C23.7678 21.3094 23.6 21.4949 23.3845 21.5872C23.2866 21.636 23.1076 21.6997 22.9642 21.6997C22.6452 21.6997 22.335 21.5127 22.1542 21.2105L21.6955 20.2941H18.6581L18.2079 21.1951C18.0856 21.4392 17.8734 21.6224 17.626 21.6974C17.5416 21.7236 17.4559 21.7357 17.3706 21.7357ZM20.1532 14.7192C20.0079 14.7192 19.8163 14.8106 19.7615 14.9469L16.9424 20.5864C16.8819 20.6928 16.8703 20.8043 16.9025 20.9111C16.941 21.0381 17.0342 21.1435 17.1659 21.2091C17.2722 21.2696 17.3832 21.2812 17.4901 21.2494C17.617 21.211 17.7224 21.1178 17.7885 20.9856L18.3039 19.9554C18.3438 19.8762 18.4248 19.8261 18.5133 19.8261H21.8403C21.9288 19.8261 22.0099 19.8762 22.0497 19.9554L22.5651 20.9856C22.6532 21.1314 22.8092 21.2311 22.9648 21.2311C23.0046 21.2311 23.1067 21.2025 23.1887 21.1623C23.2941 21.1164 23.3672 21.0344 23.4023 20.9304C23.4394 20.8193 23.4281 20.698 23.3709 20.5977C23.3691 20.594 23.3667 20.5898 23.3648 20.5865L20.5537 14.9643C20.4647 14.819 20.3082 14.7192 20.1532 14.7192ZM21.1375 18.8891H19.1697C19.0882 18.8891 19.0122 18.8464 18.9696 18.7771C18.927 18.7078 18.9237 18.6206 18.9607 18.5485L19.9446 16.6271C20.0252 16.4706 20.2815 16.4706 20.3621 16.6271L21.3465 18.5485C21.3835 18.6206 21.3802 18.7078 21.3376 18.7771C21.2949 18.8464 21.2186 18.8891 21.1375 18.8891ZM19.5525 18.4205H20.7538L20.1532 17.2473L19.5525 18.4205Z" fill="#37474F"/>
<path d="M12.7976 9.14391C13.1724 8.58171 13.3598 7.92576 13.3598 7.22299C13.3598 5.30208 11.7668 3.70911 9.84592 3.70911C7.925 3.70911 6.33203 5.30208 6.33203 7.22299C6.33203 9.14391 7.925 10.7369 9.84592 10.7369C10.5487 10.7369 11.2046 10.5026 11.7668 10.1747L12.1417 10.5495C12.2822 10.6901 12.4696 10.7369 12.657 10.7369C12.8444 10.7369 13.0319 10.69 13.1724 10.5495C13.4535 10.2684 13.4535 9.84673 13.1724 9.5656L12.7976 9.14391ZM9.84597 9.28447C8.6747 9.28447 7.73762 8.34745 7.73762 7.17612C7.73762 6.00478 8.67464 5.06776 9.84597 5.06776C11.0173 5.06776 11.9543 6.00478 11.9543 7.17612C11.9543 7.50406 11.8606 7.78519 11.7201 8.06632L11.2984 7.64463C11.0173 7.3635 10.5956 7.3635 10.3145 7.64463C10.0334 7.92576 10.0334 8.34739 10.3145 8.62852L10.7362 9.05022C10.455 9.2376 10.1739 9.28447 9.84597 9.28447Z" fill="#ECEFF1"/>
<path d="M12.6569 10.9711C12.3748 10.9711 12.1462 10.8849 11.9761 10.7153L11.7264 10.4656C11.1019 10.801 10.4698 10.9711 9.8458 10.9711C7.77916 10.9711 6.09766 9.28963 6.09766 7.22299C6.09766 5.15636 7.77916 3.47485 9.8458 3.47485C11.9124 3.47485 13.5939 5.15636 13.5939 7.22299C13.5939 7.9206 13.4243 8.5578 13.0893 9.12L13.347 9.41004C13.7125 9.77501 13.7125 10.34 13.3376 10.7153C13.168 10.8849 12.9389 10.9711 12.6569 10.9711ZM11.7671 9.94036C11.8275 9.94036 11.8875 9.9638 11.933 10.0087L12.3078 10.3836C12.4681 10.5433 12.8471 10.5433 13.0078 10.3836C13.1966 10.1948 13.1966 9.92021 13.0078 9.73089L12.6236 9.29941C12.5529 9.21979 12.5449 9.10266 12.6039 9.01407C12.9511 8.49352 13.1268 7.89101 13.1268 7.22293C13.1268 5.4454 11.6247 3.94331 9.84714 3.94331C8.06961 3.94331 6.56751 5.4454 6.56751 7.22293C6.56751 9.00047 8.06961 10.5026 9.84714 10.5026C10.4403 10.5026 11.0465 10.324 11.65 9.97218C11.6856 9.95068 11.7263 9.94036 11.7671 9.94036ZM9.84574 9.51873C8.55405 9.51873 7.50313 8.46786 7.50313 7.17612C7.50313 5.88438 8.55399 4.83351 9.84574 4.83351C11.1375 4.83351 12.1883 5.88438 12.1883 7.17612C12.1883 7.50594 12.1087 7.81285 11.9292 8.17126C11.8955 8.2387 11.8318 8.28558 11.7573 8.29777C11.6819 8.31089 11.6073 8.28558 11.554 8.2322L11.1323 7.81051C10.9435 7.62125 10.6684 7.62172 10.4796 7.81051C10.2908 7.99976 10.2908 8.27386 10.4796 8.46317L10.9013 8.88487C10.951 8.93455 10.9758 9.0034 10.9687 9.07365C10.9617 9.14344 10.9237 9.20672 10.8657 9.24563C10.5049 9.48592 10.1474 9.51873 9.84574 9.51873ZM9.84574 5.30208C8.81221 5.30208 7.9717 6.1426 7.9717 7.17618C7.9717 8.20976 8.81221 9.05028 9.84574 9.05028C10.0243 9.05028 10.1845 9.03715 10.34 8.98565L10.1484 8.79405C9.77361 8.41923 9.77361 7.85375 10.1484 7.47893C10.5228 7.10458 11.0883 7.10411 11.4636 7.47893L11.6393 7.65465C11.6941 7.48971 11.7194 7.33514 11.7194 7.17629C11.7198 6.1426 10.8793 5.30208 9.84574 5.30208Z" fill="#37474F"/>
<path d="M20.3878 4.17765C20.0129 4.03708 19.8724 3.61545 20.0129 3.24063L21.0905 0.663762C21.2311 0.288942 21.6527 0.148377 22.0275 0.288942C22.4024 0.429506 22.5429 0.851142 22.4024 1.22596L21.3248 3.80283C21.1373 4.17765 20.7157 4.31821 20.3878 4.17765Z" fill="#ECEFF1"/>
<path d="M20.6514 4.46578C20.5334 4.46578 20.4139 4.44281 20.3 4.39459C19.8236 4.21277 19.6015 3.67073 19.7936 3.15816L20.8744 0.572856C21.0516 0.100596 21.5969 -0.123816 22.1099 0.06919C22.3517 0.159599 22.5353 0.343288 22.6272 0.585981C22.7134 0.812736 22.7115 1.06902 22.6216 1.30796L21.5402 3.89327C21.3603 4.25537 21.0098 4.46578 20.6514 4.46578ZM21.7346 0.469791C21.5566 0.469791 21.3823 0.5527 21.3097 0.745764L20.2288 3.3306C20.1449 3.55501 20.1993 3.85629 20.4701 3.95795C20.4734 3.95936 20.4771 3.96077 20.4799 3.96217C20.6846 4.05024 20.9775 3.97436 21.1148 3.69839L22.1863 1.13553C22.2327 1.01137 22.2351 0.872677 22.1891 0.752737C22.1582 0.671234 22.0908 0.563012 21.945 0.508638C21.8789 0.483384 21.8063 0.469791 21.7346 0.469791Z" fill="#37474F"/>
<path d="M23.4799 6.28601C23.1988 6.00488 23.1988 5.58324 23.4799 5.30211L25.4945 3.28751C25.7756 3.00638 26.1973 3.00638 26.4784 3.28751C26.7595 3.56864 26.7595 3.99027 26.4784 4.2714L24.5106 6.23919C24.2295 6.56708 23.761 6.56708 23.4799 6.28601Z" fill="#ECEFF1"/>
<path d="M23.9741 6.7254C23.7281 6.7254 23.4896 6.62656 23.3144 6.45131C23.134 6.2709 23.0347 6.03758 23.0347 5.79395C23.0347 5.54985 23.134 5.31606 23.3144 5.13613L25.329 3.12152C25.6888 2.76076 26.2843 2.76076 26.6441 3.12152C26.8245 3.30146 26.9238 3.53525 26.9238 3.77888C26.9238 4.02297 26.8245 4.25676 26.6441 4.4367L24.6768 6.40449C24.5128 6.59656 24.272 6.71462 24.0092 6.72494C23.9971 6.7254 23.9858 6.7254 23.9741 6.7254ZM25.9864 3.31083C25.8678 3.31083 25.7516 3.36146 25.6603 3.45327L23.6457 5.46788C23.5539 5.55969 23.5032 5.67542 23.5032 5.79442C23.5032 5.91295 23.5534 6.02867 23.6457 6.12049C23.737 6.21184 23.864 6.25965 23.991 6.25684C24.1217 6.25168 24.243 6.19127 24.3325 6.08674L26.3125 4.10583C26.4043 4.01401 26.4549 3.89829 26.4549 3.77929C26.4549 3.66075 26.4048 3.54503 26.3125 3.45322C26.2211 3.36099 26.1049 3.31083 25.9864 3.31083Z" fill="#37474F"/>
<path d="M25.5881 9.37813C25.4476 9.00331 25.5881 8.62849 25.963 8.44111L28.5398 7.36353C28.9146 7.22296 29.2895 7.36353 29.4768 7.73835C29.6174 8.11317 29.4768 8.48799 29.102 8.67537L26.5252 9.75295C26.1503 9.94033 25.7286 9.75295 25.5881 9.37813Z" fill="#ECEFF1"/>
<path d="M26.2238 10.0617C26.1137 10.0617 26.0017 10.041 25.8949 9.99891C25.6531 9.90428 25.4615 9.70794 25.3692 9.46009C25.1832 8.96439 25.3795 8.47057 25.8583 8.23116L28.4492 7.14701C28.9538 6.95775 29.4467 7.15451 29.6866 7.63333C29.8824 8.15153 29.6857 8.64535 29.2073 8.88476L26.6164 9.96891C26.4936 10.0303 26.3596 10.0617 26.2238 10.0617ZM28.8259 7.54386C28.7604 7.54386 28.6924 7.55652 28.6221 7.58277L26.0537 8.65707C25.8073 8.78076 25.7075 9.02814 25.8077 9.29568C25.8546 9.4189 25.9483 9.51634 26.0664 9.56228C26.1797 9.60727 26.3058 9.60071 26.421 9.54259L29.012 8.45844C29.2584 8.33475 29.3582 8.08737 29.2579 7.81983C29.1684 7.64458 29.01 7.54386 28.8259 7.54386Z" fill="#37474F"/>
<path d="M9.61153 25.8231C9.98635 25.9637 10.1269 26.3853 9.98635 26.7601L8.90877 29.337C8.7682 29.7118 8.34656 29.8524 7.97175 29.7118C7.59693 29.5713 7.45636 29.1496 7.59693 28.7748L8.67451 26.1979C8.86189 25.8231 9.28353 25.6826 9.61153 25.8231Z" fill="#ECEFF1"/>
<path d="M8.26428 29.9999C8.14152 29.9999 8.01455 29.9779 7.88992 29.9311C7.64817 29.8407 7.46454 29.657 7.37266 29.4143C7.28647 29.1876 7.28882 28.9313 7.37829 28.6923L8.45916 26.107C8.6995 25.6259 9.2402 25.4118 9.69934 25.6057C9.93875 25.6966 10.1206 25.8793 10.2119 26.1206C10.2981 26.3474 10.2958 26.6037 10.2063 26.8426L9.12542 29.4279C8.99142 29.7844 8.64706 29.9999 8.26428 29.9999ZM9.34655 26.004C9.17364 26.004 8.98673 26.0981 8.8846 26.3029L7.81358 28.8657C7.76764 28.9875 7.7653 29.13 7.81076 29.248C7.84123 29.3295 7.90867 29.4377 8.05439 29.4926C8.28724 29.5788 8.589 29.5259 8.68972 29.2546L9.77059 26.6693C9.81652 26.5475 9.81887 26.405 9.7734 26.287C9.74293 26.2055 9.67549 26.0972 9.52977 26.0424C9.52649 26.0415 9.52274 26.0401 9.51993 26.0386C9.46649 26.0157 9.40743 26.004 9.34655 26.004Z" fill="#37474F"/>
<path d="M6.51941 23.7149C6.80054 23.996 6.80054 24.4176 6.51941 24.6987L4.5048 26.7134C4.22367 26.9945 3.80204 26.9945 3.52091 26.7134C3.23978 26.4322 3.23978 26.0106 3.52091 25.7295L5.4887 23.7617C5.76977 23.4337 6.23833 23.4337 6.51941 23.7149Z" fill="#ECEFF1"/>
<path d="M4.01276 27.1579C3.76866 27.1579 3.53535 27.0586 3.35541 26.8782C3.175 26.6983 3.07568 26.4645 3.07568 26.2209C3.07568 25.9772 3.175 25.743 3.35541 25.5635L5.3232 23.5957C5.48626 23.4041 5.72755 23.2856 5.98987 23.2753C6.24381 23.2682 6.5015 23.3652 6.68466 23.5489C6.86507 23.7292 6.96439 23.9626 6.96439 24.2062C6.96439 24.4499 6.86507 24.6841 6.68466 24.8636L4.67006 26.8782C4.49065 27.0591 4.25686 27.1579 4.01276 27.1579ZM6.02549 23.7434C6.01987 23.7434 6.01424 23.7434 6.00815 23.7438C5.8779 23.7485 5.75655 23.8089 5.66708 23.9135L3.68663 25.8948C3.59482 25.9862 3.54419 26.1024 3.54419 26.2209C3.54419 26.3394 3.59482 26.4556 3.68663 26.547C3.87073 26.7315 4.15608 26.7311 4.3393 26.547L6.35391 24.5324C6.44572 24.441 6.49635 24.3248 6.49635 24.2063C6.49635 24.0878 6.44572 23.9716 6.35391 23.8802C6.26631 23.793 6.14731 23.7434 6.02549 23.7434Z" fill="#37474F"/>
<path d="M4.41141 20.6226C4.55198 20.9975 4.41141 21.3723 4.03659 21.5597L1.45973 22.6373C1.08491 22.7778 0.710087 22.6373 0.522706 22.2624C0.382142 21.8876 0.522706 21.5128 0.897526 21.3254L3.47439 20.2478C3.84915 20.0604 4.27085 20.2478 4.41141 20.6226Z" fill="#ECEFF1"/>
<path d="M1.17289 22.9245C0.812137 22.9245 0.491692 22.724 0.313627 22.3669C0.11734 21.8487 0.314096 21.3554 0.792918 21.1155L3.38431 20.0318C3.60498 19.9203 3.86642 19.9077 4.1063 20.0023C4.34712 20.0969 4.53871 20.2933 4.63153 20.5402C4.8175 21.0364 4.62075 21.5302 4.14239 21.7691L1.551 22.8533C1.42215 22.901 1.29518 22.9245 1.17289 22.9245ZM3.78023 20.4085C3.71232 20.4085 3.64388 20.4245 3.57925 20.4573L0.988326 21.541C0.741884 21.6651 0.6421 21.9125 0.742821 22.1796C0.86323 22.4176 1.1092 22.5174 1.37815 22.418L3.94657 21.3433C4.19302 21.2191 4.2928 20.9722 4.19208 20.7047C4.14567 20.581 4.05198 20.484 3.93439 20.4381C3.8847 20.4184 3.8322 20.4085 3.78023 20.4085Z" fill="#37474F"/>
</g>
<defs>
<clipPath id="clip0_9237_19887">
<rect width="30" height="30" fill="white"/>
</clipPath>
</defs>
</svg>
