<svg width="42" height="38" viewBox="0 0 42 38" fill="none" xmlns="http://www.w3.org/2000/svg">
<g filter="url(#filter0_dd_9180_29981)">
<path d="M29.9145 13.6348L19.5702 4.79301C17.6993 3.19369 14.9577 3.39157 13.2313 5.14586L11.3269 6.95512C10.9266 7.36189 10.6131 7.84565 10.4052 8.37711C10.1973 8.90857 10.0993 9.47669 10.1173 10.0471C10.1353 10.6175 10.2689 11.1783 10.5099 11.6956C10.7508 12.2129 11.0943 12.6759 11.5194 13.0567L17.1503 18.1001L11.5383 23.2594C11.1004 23.6621 10.7525 24.1528 10.5176 24.6993C10.2827 25.2459 10.1661 25.836 10.1753 26.4308C10.1846 27.0257 10.3196 27.6118 10.5714 28.1508C10.8232 28.6898 11.1862 29.1694 11.6365 29.5582L13.4417 31.1168C14.3294 31.8833 15.4646 32.3023 16.6374 32.2963C17.8102 32.2903 18.9411 31.8598 19.821 31.0843L29.9792 22.1303C30.5835 21.5977 31.0663 20.9415 31.395 20.2061C31.7237 19.4707 31.8907 18.6733 31.8845 17.8678C31.8784 17.0623 31.6993 16.2676 31.3595 15.5373C31.0196 14.807 30.5269 14.1582 29.9145 13.6348Z" fill="#2196F3"/>
<path d="M29.9791 22.1302L19.8213 31.0844C18.9415 31.86 17.8105 32.2906 16.6376 32.2966C15.4648 32.3026 14.3294 31.8837 13.4416 31.1173L11.6367 29.5581C10.9068 28.9278 10.4148 28.0666 10.2426 27.1178C10.0704 26.1689 10.2285 25.1897 10.6904 24.3432C10.5568 25.3997 10.7876 26.421 11.5827 27.1768C12.0064 27.58 13.3242 28.736 13.3242 28.736C14.1683 29.5007 15.2683 29.9214 16.4073 29.9154C17.5463 29.9093 18.6417 29.4768 19.4777 28.7032L29.2757 19.7489C31.9335 17.1983 30.1951 14.196 28.6874 12.5858L29.915 13.6346C30.5272 14.1581 31.02 14.8069 31.3598 15.5372C31.6996 16.2675 31.8786 17.0623 31.8847 17.8678C31.8908 18.6732 31.7238 19.4706 31.395 20.206C31.0663 20.9414 30.5834 21.5975 29.9791 22.1302Z" fill="#1976D2"/>
<path d="M17.1504 18.1001L11.5196 13.0569C10.9267 12.5263 10.4961 11.8388 10.2773 11.0739C10.0586 10.3089 10.0606 9.49772 10.2832 8.73389C10.4935 9.47754 10.9038 10.1492 11.4695 10.6758L17.129 15.7225C17.2962 15.8715 17.4303 16.0538 17.5229 16.2577C17.6154 16.4616 17.6642 16.6826 17.6662 16.9066C17.6682 17.1305 17.6234 17.3523 17.5346 17.5579C17.4457 17.7634 17.3149 17.9481 17.1504 18.1001Z" fill="#1976D2"/>
<path d="M9.82418 26.4363C9.83448 27.0806 9.98081 27.7155 10.2536 28.2994C10.5264 28.8832 10.9194 29.4028 11.407 29.8242L13.2123 31.3828C15.1049 33.0715 18.1786 33.0555 20.0538 31.3476L30.212 22.394C30.8541 21.8281 31.3671 21.1308 31.7163 20.3495C32.0656 19.5681 32.243 18.7209 32.2364 17.865C32.2299 17.0092 32.0397 16.1647 31.6785 15.3888C31.3174 14.6129 30.7938 13.9235 30.1433 13.3674L19.799 4.52565C17.8643 2.81395 14.7585 3.03151 12.9852 4.89479L11.0851 6.70001C9.25664 8.46678 9.35379 11.6653 11.2849 13.3183L16.6273 18.1033L11.3007 23.0006C10.8265 23.4369 10.4498 23.9685 10.1953 24.5606C9.94088 25.1527 9.8144 25.7919 9.82418 26.4363ZM30.8862 15.7363C30.8294 15.4906 30.7558 15.2492 30.6661 15.0135C31.3642 16.0749 31.6556 17.3526 31.4867 18.6117C31.3178 19.8708 30.7001 21.0266 29.747 21.8665L19.5888 30.8207C18.7711 31.5366 17.7227 31.9337 16.6359 31.9393C15.5491 31.9449 14.4967 31.5584 13.6718 30.8509L11.8665 29.2923C11.4264 28.9118 11.0777 28.437 10.8463 27.9032C10.615 27.3694 10.5069 26.7903 10.5301 26.209C10.7032 26.673 10.9804 27.0912 11.3403 27.4314C11.7643 27.8348 13.0382 28.9528 13.0896 28.9979C14.0004 29.8173 15.1839 30.2678 16.409 30.2613C17.6341 30.2548 18.8128 29.7918 19.7148 28.9627L29.5128 20.0084C29.5149 20.0065 29.517 20.0045 29.5191 20.0025C30.7762 18.7962 31.2489 17.3209 30.8862 15.7363ZM11.7541 12.7948C11.3628 12.447 11.047 12.0228 10.8259 11.5483C10.6049 11.0738 10.4834 10.5591 10.4689 10.0358C10.4689 10.0268 10.4689 10.0182 10.4689 10.009C10.6811 10.3492 10.9372 10.66 11.2307 10.9331C11.2325 10.9348 11.2342 10.9365 11.2361 10.938L16.8963 15.9852C17.351 16.3752 17.4484 17.1003 17.117 17.5976L11.7541 12.7948ZM11.7767 23.5182L17.3885 18.3589C18.2294 17.6176 18.2177 16.1857 17.3633 15.4599L11.7064 10.4158C11.214 9.9558 10.8499 9.3755 10.6499 8.73204C10.8339 8.15785 11.1503 7.63496 11.5737 7.20561L13.4737 5.40092C13.4767 5.39823 13.4796 5.39542 13.4822 5.39266C15.1098 3.73862 17.629 3.59577 19.342 5.06014L28.4419 12.8379C28.9717 13.4058 29.8928 14.5473 30.2008 15.8929C30.5095 17.2413 30.1173 18.4522 29.0352 19.4921L19.2404 28.4437C18.4663 29.1549 17.4548 29.552 16.4036 29.5572C15.3524 29.5624 14.337 29.1753 13.556 28.4717C13.5428 28.46 12.2387 27.3158 11.8249 26.9221C11.0345 26.1707 10.9518 25.1805 11.0308 24.4575C11.2289 24.1075 11.4806 23.7905 11.7766 23.5182H11.7767Z" fill="black"/>
</g>
<defs>
<filter id="filter0_dd_9180_29981" x="-4" y="0" width="50" height="38" filterUnits="userSpaceOnUse" color-interpolation-filters="sRGB">
<feFlood flood-opacity="0" result="BackgroundImageFix"/>
<feColorMatrix in="SourceAlpha" type="matrix" values="0 0 0 0 0 0 0 0 0 0 0 0 0 0 0 0 0 0 127 0" result="hardAlpha"/>
<feMorphology radius="1" operator="dilate" in="SourceAlpha" result="effect1_dropShadow_9180_29981"/>
<feOffset dy="1"/>
<feGaussianBlur stdDeviation="1.5"/>
<feColorMatrix type="matrix" values="0 0 0 0 0 0 0 0 0 0 0 0 0 0 0 0 0 0 0.15 0"/>
<feBlend mode="normal" in2="BackgroundImageFix" result="effect1_dropShadow_9180_29981"/>
<feColorMatrix in="SourceAlpha" type="matrix" values="0 0 0 0 0 0 0 0 0 0 0 0 0 0 0 0 0 0 127 0" result="hardAlpha"/>
<feOffset dy="1"/>
<feGaussianBlur stdDeviation="1"/>
<feColorMatrix type="matrix" values="0 0 0 0 0 0 0 0 0 0 0 0 0 0 0 0 0 0 0.3 0"/>
<feBlend mode="normal" in2="effect1_dropShadow_9180_29981" result="effect2_dropShadow_9180_29981"/>
<feBlend mode="normal" in="SourceGraphic" in2="effect2_dropShadow_9180_29981" result="shape"/>
</filter>
</defs>
</svg>
