<svg width="30" height="30" viewBox="0 0 30 30" fill="none" xmlns="http://www.w3.org/2000/svg">
<path d="M28.7583 10.8736C27.9958 10.2398 26.8664 10.3431 26.2334 11.103L18.4651 20.4122L15.1433 17.0904L12.8384 19.8564L17.3182 24.3362C17.6553 24.6733 18.1114 24.8615 18.5859 24.8615C18.613 24.8615 18.6402 24.8606 18.6673 24.8597C19.1707 24.837 19.6408 24.6032 19.963 24.2162L28.9877 13.3986C29.6216 12.6378 29.5191 11.5075 28.7583 10.8736Z" fill="#67CCD1"/>
<path d="M7.82839 24.8613C7.35391 24.8613 6.89777 24.6731 6.56069 24.3361L1.12198 18.8973C0.42158 18.1969 0.42158 17.0623 1.12198 16.3619C1.82238 15.6615 2.95698 15.6615 3.65738 16.3619L7.7076 20.4122L15.4162 11.1627C16.0492 10.4028 17.1785 10.2995 17.941 10.9333C18.7018 11.5672 18.8043 12.6974 18.1704 13.4582L9.20552 24.2161C8.88332 24.6031 8.4132 24.8368 7.90979 24.8596C7.88266 24.8605 7.85552 24.8613 7.82839 24.8613Z" fill="#B1D952"/>
<path d="M15 7.52932C14.67 7.52932 14.4023 7.26175 14.4023 6.93166V5.13868C14.4023 4.80859 14.67 4.54102 15 4.54102C15.3301 4.54102 15.5977 4.80859 15.5977 5.13868V6.93166C15.5977 7.26175 15.3301 7.52932 15 7.52932Z" fill="#FDCB50"/>
<path d="M9.929 7.83703C9.776 7.83703 9.62312 7.77869 9.50639 7.66197L8.23852 6.39415C8.00513 6.16077 8.00513 5.78233 8.23852 5.54894C8.47196 5.31555 8.85028 5.31555 9.08379 5.54894L10.3517 6.81676C10.5851 7.05015 10.5851 7.42858 10.3517 7.66197C10.2349 7.77863 10.0819 7.83703 9.929 7.83703Z" fill="#FDCB50"/>
<path d="M20.0713 7.83703C19.9183 7.83703 19.7654 7.77869 19.6487 7.66197C19.4153 7.42852 19.4153 7.05015 19.6487 6.81676L20.9166 5.54894C21.1501 5.31555 21.5284 5.31555 21.7618 5.54894C21.9952 5.78239 21.9952 6.16077 21.7618 6.39415L20.4939 7.66197C20.3772 7.77863 20.2242 7.83703 20.0713 7.83703Z" fill="#FDCB50"/>
<path d="M29.1407 10.4142C28.1271 9.57151 26.6168 9.70897 25.7747 10.7202L18.4253 19.5273L15.9516 17.0536L18.6291 13.8406C19.0379 13.3505 19.2315 12.7301 19.1736 12.0942C19.1162 11.4583 18.8138 10.8828 18.3231 10.474C17.3089 9.63127 15.7992 9.76874 14.9571 10.78L7.66739 19.5267L4.07963 15.9396C3.6284 15.4878 3.02775 15.2391 2.38945 15.2391C1.75115 15.2391 1.1505 15.4878 0.699263 15.9396C-0.233088 16.8713 -0.233088 18.3882 0.699263 19.32L6.13798 24.7587C6.58921 25.2105 7.18986 25.4591 7.82816 25.4591C7.86163 25.4591 7.8951 25.4579 7.92857 25.4573C7.93156 25.4567 7.93395 25.4567 7.93634 25.4567C8.60572 25.4263 9.23565 25.1137 9.66417 24.5991L12.8784 20.7418L16.8959 24.7587C17.3471 25.2105 17.9478 25.4591 18.5861 25.4591C18.6195 25.4591 18.653 25.4579 18.6865 25.4573C18.6895 25.4567 18.6918 25.4567 18.6942 25.4567C19.3636 25.4263 19.9935 25.1137 20.4221 24.5991L29.4467 13.7808C30.2906 12.7684 30.1538 11.2581 29.1407 10.4142ZM8.74617 23.8341C8.5322 24.0905 8.21903 24.2465 7.88613 24.2626C7.86641 24.2632 7.84729 24.2638 7.82816 24.2638C7.50901 24.2638 7.20898 24.1395 6.98307 23.9136L1.54436 18.4749C1.07818 18.0087 1.07818 17.2509 1.54436 16.7847C1.77744 16.5516 2.08345 16.435 2.38945 16.435C2.69545 16.435 3.00145 16.5516 3.23454 16.7847L7.28489 20.835C7.40322 20.9534 7.56579 21.0167 7.73433 21.0095C7.90227 21.0018 8.05886 20.9241 8.16644 20.795L15.8751 11.5456C16.2964 11.04 17.0519 10.9712 17.5581 11.3926C17.8037 11.597 17.9543 11.8845 17.9836 12.2024C18.0123 12.5204 17.9155 12.8306 17.7111 13.0756L8.74617 23.8341ZM28.5287 13.0158L19.5041 23.8341C19.2901 24.0905 18.9769 24.2465 18.644 24.2626C18.6243 24.2632 18.6052 24.2638 18.5861 24.2638C18.2669 24.2638 17.9669 24.1395 17.741 23.9136L13.647 19.8196L15.1836 17.9758L18.0428 20.835C18.1611 20.9534 18.3255 21.0167 18.4922 21.0095C18.6596 21.0018 18.8168 20.9241 18.9243 20.795L26.6927 11.4858C27.1141 10.9802 27.8695 10.9115 28.3757 11.3328C28.6214 11.5372 28.772 11.8247 28.8013 12.1426C28.83 12.4606 28.7331 12.7708 28.5287 13.0158Z" fill="#052A75"/>
</svg>
