<svg width="20" height="28" viewBox="0 0 20 28" fill="none" xmlns="http://www.w3.org/2000/svg">
<path d="M7.2124 23.8246V25.5004C7.2124 26.0795 7.68188 26.5489 8.26099 26.5489H11.7397C12.3188 26.5489 12.7883 26.0795 12.7883 25.5004V23.8246H7.2124Z" fill="#6864F7"/>
<path d="M5.56104 22.1649C5.56104 23.0818 6.30431 23.8251 7.22121 23.8251H12.7739C13.6908 23.8251 14.434 23.0818 14.434 22.1649V20.9474H5.56104V22.1649Z" fill="#BC9AF4"/>
<path d="M9.98241 0.528704C4.7392 0.538753 0.475828 4.85734 0.530301 10.1003C0.559707 12.9311 1.83121 15.4639 3.82553 17.1804C4.92362 18.1255 5.56445 19.4953 5.56445 20.9441V20.947H14.4374V20.9439C14.4374 19.4986 15.0724 18.1285 16.1689 17.1868C18.1911 15.45 19.4721 12.8747 19.4721 9.99985C19.4721 4.76294 15.2217 0.518709 9.98241 0.528704Z" fill="#FDCB50"/>
<path d="M7.98688 20.9477C6.48045 18.3726 5.61612 15.3761 5.61612 12.1774C5.61612 7.69776 7.30993 3.61405 10.0914 0.530585C10.055 0.530267 10.0188 0.529368 9.98235 0.529421C4.7392 0.539417 0.475828 4.858 0.530301 10.1009C0.559707 12.9317 1.83121 15.4645 3.82553 17.181C4.92362 18.1262 5.56445 19.4959 5.56445 20.9448V20.9477H7.98688Z" fill="#FD8F01"/>
<path d="M16.4727 9.84622C16.4727 13.4207 13.5749 16.3184 10.0005 16.3184C8.40168 16.3184 6.93825 15.7387 5.80901 14.778C5.80901 14.778 4.05713 11.8219 4.05713 9.84622C4.05713 7.05061 7.78211 3.76428 7.78211 3.76428C8.47377 3.51206 9.22154 3.37402 10.0005 3.37402C13.575 3.37402 16.4727 6.27175 16.4727 9.84622Z" fill="white"/>
<path d="M5.61669 12.1768C5.61669 9.12483 6.40248 6.25746 7.78315 3.76416C5.30074 4.66937 3.5293 7.0505 3.5293 9.8461C3.5293 11.8218 4.41457 13.5908 5.81004 14.7779C5.68269 13.9294 5.61669 13.0607 5.61669 12.1768Z" fill="#D2DCFD"/>
<path d="M17.0643 2.92216C15.1759 1.03727 12.6679 0 10.0002 0C9.99369 0 9.98703 0 9.98052 0C7.30333 0.00513003 4.78655 1.06324 2.89378 2.97938C1.00022 4.89638 -0.0272172 7.42728 0.000548382 10.1059C0.0303766 12.9794 1.2985 15.704 3.47961 17.5813C4.46785 18.4319 5.03464 19.6576 5.03464 20.9442V22.1647C5.03464 23.1853 5.73672 24.0448 6.68318 24.286V25.5006C6.68318 26.3704 7.39081 27.078 8.26064 27.078H11.7394C12.6092 27.078 13.3168 26.3704 13.3168 25.5006V24.286C14.2633 24.0448 14.9654 23.1852 14.9654 22.1647V20.9441C14.9654 19.6558 15.5293 18.4326 16.5125 17.5881C18.7289 15.6845 20 12.9187 20 9.99991C20.0001 7.32531 18.9574 4.81165 17.0643 2.92216ZM11.7394 26.0204H8.26069C7.97415 26.0204 7.74097 25.7872 7.74097 25.5006V24.3537H12.2592V25.5006C12.2591 25.7872 12.026 26.0204 11.7394 26.0204ZM15.8233 16.7858C14.6059 17.8314 13.9076 19.3471 13.9076 20.9441V22.1647C13.9076 22.7885 13.4001 23.2961 12.7763 23.2961H7.22368C6.59988 23.2961 6.09238 22.7885 6.09238 22.1647V20.9443C6.09238 19.3493 5.39158 17.8314 4.16962 16.7796C2.219 15.1008 1.08494 12.6644 1.05823 10.0949C1.03338 7.70055 1.9525 5.43752 3.64625 3.72276C5.33932 2.00875 7.58956 1.06234 9.98253 1.05774H10.0001C12.3855 1.05774 14.6285 1.98543 16.3171 3.67077C18.01 5.36046 18.9423 7.60821 18.9423 10C18.9423 12.61 17.8055 15.0833 15.8233 16.7858Z" fill="#052A75"/>
<path d="M11.6314 12.599H10.5277V8.86029C10.5277 8.5682 10.2909 8.33142 9.99884 8.33142H8.36627C8.07418 8.33142 7.8374 8.5682 7.8374 8.86029C7.8374 9.15238 8.07418 9.38916 8.36627 9.38916H9.46997V12.599H8.36627C8.07418 12.599 7.8374 12.8357 7.8374 13.1278C7.8374 13.4199 8.07418 13.6567 8.36627 13.6567H11.6314C11.9235 13.6567 12.1603 13.4199 12.1603 13.1278C12.1603 12.8357 11.9235 12.599 11.6314 12.599Z" fill="#93B2F4"/>
<path d="M9.99957 7.30189C10.2917 7.30189 10.5284 7.06511 10.5284 6.77302V6.20221C10.5284 5.91011 10.2917 5.67334 9.99957 5.67334C9.70748 5.67334 9.4707 5.91011 9.4707 6.20221V6.77302C9.4707 7.06511 9.70748 7.30189 9.99957 7.30189Z" fill="#93B2F4"/>
<path d="M15.5346 20.4186H4.46832C4.17623 20.4186 3.93945 20.6554 3.93945 20.9474C3.93945 21.2395 4.17623 21.4763 4.46832 21.4763H15.5346C15.8267 21.4763 16.0635 21.2395 16.0635 20.9474C16.0635 20.6554 15.8267 20.4186 15.5346 20.4186Z" fill="#6864F7"/>
</svg>
